<?xml version="1.0" encoding="utf-8"?>
<!-- Generator: Adobe Illustrator 18.0.0, SVG Export Plug-In . SVG Version: 6.00 Build 0)  -->
<!DOCTYPE svg PUBLIC "-//W3C//DTD SVG 1.1//EN" "http://www.w3.org/Graphics/SVG/1.1/DTD/svg11.dtd">
<svg xmlns="http://www.w3.org/2000/svg" xmlns:xlink="http://www.w3.org/1999/xlink" version="1.1" id="Слой_1" x="0px" y="0px" viewBox="0 0 575.1 1024" enable-background="new 0 0 575.1 1024" xml:space="preserve">
<path fill="#b385dc" stroke="" stroke-width="2" stroke-linecap="round" stroke-linejoin="round" stroke-miterlimit="10" d="  M535.3,290.2c-2-10.1-17.5-22.9-17.5-22.9c15.5-22.3,6.1-19.6,6.1-19.6c-10.8-3.4,0.7-25,0.7-25c19.6-15.5,22.9-49.2,22.9-49.2  c29.7-51.9-2.7-41.8-2.7-41.8c8.8-18.9-4.7-41.1-4.7-41.1c54-69.5,16.2-64.1,16.2-64.1C462.5,48.1,364,291.6,354.8,302.4  s-27.9,58-27.9,58l-9.5-11.1c0.8-4.1-6.2-7.5-6.2-7.5c-5.4-0.8-1.3-11.6-1.3-11.6c1.8-11.6-9.2-10.5-9.2-10.5  c-11.2-3.7-5.1-11.7-5.1-11.7c3.7-8.7-14.4-16-14.4-16c1.6-11.7-22.4-19.3-25.7-21.1c2-14.4-15.9-32.8-15.9-32.8  c-2.4-41.4-20.5-46.2-20.5-46.2c-17.4-5.9-17.1-31.5-17.1-31.5c-4.9-17.1-27.3-43.5-27.3-43.5c-27.1-47.4-29.9-30.8-29.9-30.8  c-10.5-16.7-30-29.7-30-29.7C82.8-10.8,75.1,3.8,75.1,3.8c-11.4,36.2,88.6,195.4,121,247.7c-9.9,2.5-23.9,7.8-22.6,18.1  c0,0-22,10-14.9,31.9c0,0-3.7,21,11.4,25.6c0,0,5.4,11,15.2,11.9c0,0,8.9,9.4,16.2,11.5c0,0,6.6,2.1,12,7.1c0,0,3.7,2.1,7.1,0  c0,0,7.9-3.7,4.6,7.1c0,0-9.1,13.3-13.7,16.2c0,0-22.8,3.7-30.3,31.9c0,0-9.1,24.1-16.2,32.4c0,0-10.4,14.4-16.6,28.2  c0,0-9.5,6.6-18.3,9.1c0,0-34,11.2-49.4,16.6c0,0-24.1,5.8-32.4,2.1c0,0-9.1-8.7-11.2-15.3c0,0-0.8-2.9-5.8-5.4l-13.7-8.3l-2.1-0.8  c0,0-1.7-37.7,23.6-59.3c0,0,8.3-4.1,10.8-11.6l-3.7,0.8c0,0,19.9-28.2,31.9-34c0,0,3.7-9.1-10-10c0,0-15.3-7.1-22.8,3.3l-1.2,12  c0,0-2.9-5-9.5-2.9c0,0-6.6,2.5,2.9,9.1c0,0,6.6,11.6,3.3,21.2l-2.1-4.6c0,0-7.9,10-3.7,13.3c0,0-24.7,19.5-24.7,64.3  c0,0-12.7,10.4-9.8,12.9c0,0,3.3,1.2,5.4-1.2c0,0-2.1,3.3-2.9,7.1c0,0-3.8,5-2.9,10.8c0,0,2.1,2.1,3.3,0c0,0,1.7,6,5.4,0.9l4.1-0.9  c0,0,19.9,119.9,47.7,153.1c0,0,0.4-9.5-2.5-14.5c0,0-21.6-25.7-41.1-139.8c0,0,14.1,21.2,26.5,20.3l31.1-0.2  c0,0,66.4,2.7,86.3-18.8c0,0,29-29,30.3-33.6c0,0,7.2,19.5,10.1,22c0,0-11.3,20.3-7.9,22.8c0,0-33.2,35.3-28.3,51  c0,0-11.9,19.9-13.2,50.1c-2,4-3.2,8.9-3.3,15.1c0,0,0,27.3-38.3,54.9c0,0-66.8,47.2-40.3,97.3c0,0-7.9-22.6,5.9-34.4  c0,0-12.8,49.1,18.7,55c0,0,27.5,3.9,16.7,29.5c0,0,27.5-19.1-4.9-46.1c0,0-22.3-22.6,18.9-48.1c0,0-22.8,23.6-6.1,34.4  c0,0-2-13.7,12.8-19.6c0,0,24.5-4.9,27.5-37.3c0,0,0-11.2,6.5-20.9c0.6,4.4,0.8,8.4,0.5,11.4c0,0,0,33.6,4.6,39.8  c0,0,1.7,65.1,5.4,74.7c0,0,1.2,18.3,7.1,22.8c0,0,0.8,27.8,12,34.4c0,0,17.4,51,19.1,68.9c0,0,0.8,22.4-2.1,32.8  c0,0-4.6,14.5-6.2,18.3c0,0-11.6,7.1-8.7,11.6c0,0-0.4,4.5,1.7,5.8c0,0,0.8,5.4,4.1,4.6c0,0,4,6.6,14.3-2.9c0,0,13.5-5.4,14.3-14.5  c0,0,4.1-23.2,7.9-25.7c0,0,9.4-8.3,9.4-15.3c0,0-1.5-7.1-6.5-12c0,0-5.8-8.7-5.8-17l-1.7-34.4c0,0,11.4-4.1,14-27.8  c0,0,0.5-19.1,1.8-23.2c0,0,5.8-13.7,0-19.9c0,0-2.5-1.7,0-12.9c0,0,27-58.9,10.4-75.9c0,0-3.7-4.6,5.4-24.5c0,0,38.2-61,42.7-72.2  c0,0,3.3-5,2.3-10.4c0,0,5.2-9.5,1.9-14.1c0,0,2.1-25.7-1.9-33.6c0,0,1.9-5.8,0-10.4c0,0,0.8-46-3.2-62.2c0,0,3.9-6.6,0-14.1  c0,0,2.3-2.9,0-7.9c0,0,0.9-25.2,3.2-29.4c0,0,11.3,24.1,12.8,32.9c0,0,1.5,9.8,0,23.1c0,0-5.9,21.6-0.4,66.2c0,0,0.7,13.9,0,28.3  c0,0-0.9,11.3,0,20c0,0-1.1,31.1,1.1,34.6c0,0,3.3,21.1,5.7,22.6c0,0,1.9-2.7,0-11.3l0.9-13.3c0,0,1.6-2.3,2.4,1.9l3.4,8.2  l13.3,12.5c0,0,2.6,0,1.1-4.3c0,0,1.1-0.8-0.4-5.8l-5.4-8.6l-0.8-4.3l6.7,7.8c0,0,3.4-1.9-1.3-7l-1.3-2.2c0,0-1.9-31-6-42.2  c0,0-0.3-14.9,3.4-30.6c0,0,12-41.1,6.4-79c0,0,1-50.4-4.8-70.7l-4.2-21.3c23.6,13.5,110-18.9,110-18.9  c38.4-5.4,22.9-11.5,22.9-11.5c10.1-20.9,41.8-22.3,41.8-22.3c50.6-15.5,31.7-22.3,31.7-22.3c35.7-18.9,18.2-37.1,18.2-37.1  C593.4,284.2,535.3,290.2,535.3,290.2z M419.4,351.1c-11.4,11.1-35.5,34-49.6,41c0,0-12.3,8.8-27.1,6.1l-1.1-5.4  C341.6,392.8,396.7,370.3,419.4,351.1c3.9-3.8,6.2-6.2,6.2-6.2C424.1,346.9,421.9,349,419.4,351.1z"/>
</svg>
