<?xml version="1.0" encoding="utf-8"?>
<!-- Generator: Adobe Illustrator 18.0.0, SVG Export Plug-In . SVG Version: 6.00 Build 0)  -->
<!DOCTYPE svg PUBLIC "-//W3C//DTD SVG 1.1//EN" "http://www.w3.org/Graphics/SVG/1.1/DTD/svg11.dtd">
<svg xmlns="http://www.w3.org/2000/svg" xmlns:xlink="http://www.w3.org/1999/xlink" version="1.1" id="Слой_2" x="0px" y="0px" viewBox="0 160 1590 673" enable-background="new 0 160 1590 673" xml:space="preserve">
<path fill="#b385dc" stroke="" stroke-width="2" stroke-miterlimit="10" d="M1559.5,339.2c0,0,1.6,8.9,0,30.3  c-1.6,21.5-5.3,58.4-25.2,81.1c-19.9,22.7-66.5,31.7-81.5,28s-31.3-18.3-43.3-26c-12.1-7.7-35.6-15.8-35.6-15.8l10.6-3.7  c0,0-4.1-2.4-13-4.9c-8.9-2.4-17-12.6-32.1-23.5c-15-11-40.5-16.2-34.8-15.4c5.7,0.8,9.3-4.9,9.3-4.9s-15.8-7.3-14.6-7.3  s5.3-7.3,10.6-18.3s20.3-14.6,29.9-23.1c9.7-8.5,21.5-28.8,21.5-28.8s-16.6-5.3-11.4-6.1c5.3-0.8,13.8-1.2,13.8-1.2  s0.4-5.7,0.4-22.7c0-17,17.5-41.3,25.6-49.4c8.1-8.1,20.7-13.8,15.4-17c-5.3-3.2-23.1-9.7-23.1-9.7s6.9,0.4,29.5-4.9  c22.7-5.3,65.3-6.5,65.3-6.5s-49.8-18.3-92-22.3c-42.1-4.1-73.8-1.3-117.1,15c-59,22.1-105.7,64.8-120.4,90.8  c-14.7,26-42.5,126.4-57.1,155.7c-14.6,29.3-119.1,107.1-138.6,120c-19.5,13-75,32.5-140.7,29.1c-65.7-3.2-137.8-6.2-166.7-3.2  c-3.7,0.4-8,1.1-12.3,1.9c2.4-1.5,17.2-11.3,23.5-13.2c6.2-1.9,5.2-7.8,1.9-9.9c-3.2-2.1-11.7,3.2-21.1,6.8  c-9.4,3.6-23.7,8.6-22.9,8.1c0.8-0.5,19.2-9.7,21.3-10.6c2.1-0.8,9.7-6.2,17.9-9.7c8.1-3.6,2.7-12.2-3.2-10.2  c-6,1.9-7.6,2.9-7.6,2.9s2.6-6.5-3.6-7.3c-6.2-0.8-18.2,3.6-18.2,3.6s1.3-1.1,2.1-1.6c0.8-0.5,1.3-3.2-2.4-5.7  c-3.8-2.4-12.2,1.1-20.5,2.7c-8.3,1.6-14.3,5.2-22.4,5.7c-8.1,0.5-3.8,1.6-13.5,6.5c-9.7,4.9-17.4,14.6-24.4,15.6  c-0.4,0-0.9,0.1-1.6,0c-10.7-3-27.2-8-40.4-12.5c-1.9-0.7-2.9-1.1-2.9-1.1s-0.1,0-0.4,0c-2.9-1.1-5.6-2-8-2.9  c6.4-2.5,14.3-10.1,14.3-10.1s-6,3.2-11.4,5.4c-2.3,0.9-5.7,1.6-8.9,2.1c-1.2-0.5-2.3-1.1-2.9-1.6c-0.7-0.4-1.3-0.8-2-1.2  c1.7-0.9,4-1.7,7.4-2.5c11.4-2.7,14.6-13.5,14.6-13.5s-8.6,9.1-26,13.5c-0.5,0.1-0.9,0.3-1.5,0.4c-3.4-1.1-6.9-1.6-10.2-1.7  c2.3-0.7,5.7-1.3,11-1.9c17.4-1.6,22.7-15.1,21.6-13c-1.1,2.1-13.5,9.7-26,10.9c-12.5,1.1-22.1,2.7-37.9-1.1  c-15.6-3.8-16.2-7.6-34.6-4.9c-18.4,2.6-15.1,10.2-28.6,8.6s-28.1,0.5-28.1,0.5s10.2-2.1,17.9-2.6c7.6-0.5,22.1-13,22.1-13  s-15.6,3.8-18.9,6.5c-3.2,2.6-14.6,1.1-29.2,0c-14.6-1.1-31.4,6-46.5,3.2c-15.1-2.7-13.5-11.4-22.1-18.4c-2.3-1.7-6.2-3.3-11-4.5  c-1.9-2.3-4.4-4.9-7.9-7.9c-12.5-10.9-24.9,0.5-33.5,0.5c-8.6,0-4.9,1.1-23.2-1.1c-18.4-2.1-47,3.2-53,4.4c-6,1.1-6-4.9-21.6-2.1  c-15.6,2.6-28.1,15.6-47,26c-18.9,10.2-29.2,29.1-41.6,43.7s-8.6,17.4-15.1,39s6,9.1,7.6,18.9c1.6,9.7,1.9,19.7,6.5,30.2  c3.6,8.1,18.9,10.9,13.5,32.5c-3.8,15.2-4.4,25.4,0,27.6c4.4,2.1,13-3.4,15.9,0c1.6,1.9,1.6,6.6,1.6,10.3c0,3.7,6,4.9,6,4.9  s-3.2,4.4,0,7.6c3.2,3.2,8.1,2.6,8.1,2.6s1.9,3.7,4.5,9.7c2.6,6,6.5,10.9,18.9,8.6c12.5-2.3,45.4-23.2,45.4-23.2s17.9,5.4,34.1,7.6  s63.2,5.4,71.9,6.5c8.6,1.1,25.4,16.7,37.9,26c12.5,9.1,54.1,43.1,89.7,47.3c35.6,4.4,64.9-24.6,64.9-24.6s35.1,4.4,86-7  c50.9-11.4,31.9-8.1,64.8-14c33-6,26.5-9.1,62.7-8.6c36.2,0.5,182.7-43.2,223.8-57.2c41.1-14,105.3-52.5,124.8-68.1  c19.5-15.6,24.9-35.1,62.1-69.2c37.2-34.1,95.5-92.1,128.7-94.6c22.7-1.7,41.2,5.3,90.2,9.3c49,4.1,159,12.7,216.5,2.8  c44.7-7.7,92-79.9,95.3-104.5C1590.4,363.6,1559.5,339.2,1559.5,339.2z M214.5,500.2c0,0,9.7-3.2,20-1.1c3.4,0.7,6.6,2.5,9.5,4.8  C230.6,501.2,214.5,500.2,214.5,500.2z M514.1,608.6c-10.9,2.6-15.6,2.9-15.6,2.9s3.6-1.9,6-3.2c2.4-1.3,3.2-5.4,3.2-5.4  s-2.6,1.1-7.3,4.6c-4.6,3.6-27.3,1.6-19.2,0.8c8.1-0.8,14.3-7,14.3-7s-9.9,4.9-14.6,4.1c-4.6-0.8-7.3-6-13-12.7  c-5.7-6.8-18.9-14-8.1-8.6c8.6,4.4,56.4,14.2,75.4,17.9C528,604.2,520.9,606.9,514.1,608.6z"/>
</svg>
